PathFileType	4	(X/Y/Z)	OpenSim_Sub08_EMGStiffKnee_Gyro.trc
DataRate	CameraRate	NumFrames	NumMarkers	Units	OrigDataRate	OrigDataStartFrame	OrigNumFrames
100	100	24	8	m	100	3151	6301
Frame#	Time	torso_imu_offset_imu	pelvis_imu_offset_imu	tibia_r_imu_offset_imu	femur_r_imu_offset_imu	tibia_l_imu_offset_imu	femur_l_imu_offset_imu	toes_r_imu_offset_imu	toes_l_imu_offset_imu
				X1	Y1	Z1	X2	Y2	Z2	X3	Y3	Z3	X4	Y4	Z4	X5	Y5	Z5	X6	Y6	Z6	X7	Y7	Z7	X8		Y8	Z8	

3151	31.50000000	0.38153479	-0.14000337	0.06678169	0.70404943	-0.08963578	0.20174860	1.95607879	0.61020862	1.32904190	0.63878902	-0.07450041	0.38838767	0.36977961	-0.08224042	0.70737055	0.70521085	0.01515542	0.38590654	0.48962883	0.63885651	2.29280713	0.04759727	-0.25711544	0.20217756
3152	31.51000000	0.38748245	-0.10946271	0.07320932	0.72499588	-0.08805890	0.20555383	1.80216878	0.57018971	1.26746008	0.56645776	-0.09681292	0.27044324	0.38515340	-0.07853891	0.70278686	0.75908306	0.03662838	0.38066421	0.49460192	0.70714162	2.12493712	-0.00315044	-0.30989677	0.22976808
3153	31.52000000	0.38729950	-0.07565197	0.07522219	0.73231189	-0.08421780	0.21178559	1.57917434	0.51080232	1.19083523	0.53138683	-0.10538351	0.14856183	0.41324685	-0.07753068	0.69319155	0.78384128	0.05259167	0.38738700	0.45223338	0.66591472	1.91644684	0.05088646	-0.32271854	0.22892237
3154	31.53000000	0.39911943	-0.06221189	0.08064634	0.72707711	-0.08832034	0.22339377	1.25573959	0.45785371	1.15243387	0.52456314	-0.08428500	0.04655827	0.42715209	-0.06612515	0.73226363	0.76209245	0.04813553	0.39554229	0.33258540	0.66442010	1.71959132	0.09226259	-0.39520280	0.21584948
3155	31.54000000	0.40390941	-0.03562942	0.08708651	0.71232744	-0.09301713	0.23820403	1.01469128	0.39121187	1.12004083	0.46564967	-0.06372658	-0.04449949	0.42850093	-0.06016896	0.77377714	0.70439459	0.03907650	0.41185072	0.15947913	0.57107983	1.51500992	0.04581386	-0.42044855	0.21167495
3156	31.55000000	0.39852424	-0.00937896	0.09060570	0.71049486	-0.08385226	0.24439749	0.78218349	0.31550277	1.08336539	0.35803561	-0.07164475	-0.09720799	0.43039733	-0.02635461	0.77887865	0.64341654	0.04185660	0.44495438	0.01230431	0.53099890	1.30285568	0.07921122	-0.53149273	0.18228331
3157	31.56000000	0.39087336	0.00608851	0.09148559	0.68494645	-0.07003011	0.24527495	0.57739723	0.23048199	0.99288492	0.31431122	-0.09480024	-0.12525585	0.41448703	-0.00420632	0.77604672	0.60385458	0.05051817	0.47659854	-0.06229211	0.46051804	1.05838365	0.10938491	-0.58999049	0.16840951
3158	31.57000000	0.38896700	0.00319102	0.08901495	0.64729113	-0.05069086	0.23583930	0.38324365	0.13802813	0.85766454	0.34128823	-0.13828476	-0.14588430	0.41883673	0.00962810	0.79411410	0.59015829	0.06220826	0.51010352	-0.15026137	0.35473070	0.80227224	0.09304034	-0.67599620	0.14639519
3159	31.58000000	0.37217836	0.01368091	0.08185480	0.59846791	-0.04262282	0.22413930	0.18319468	0.06555233	0.70976545	0.38035569	-0.16407469	-0.15549754	0.39202338	0.01890348	0.85993343	0.60029334	0.07726934	0.54596399	-0.24104892	0.24215501	0.57009120	0.15199625	-0.71826423	0.13339938
3160	31.59000000	0.35417382	0.03491927	0.07487043	0.56347985	-0.04346204	0.20922858	0.01611905	0.01050941	0.59833949	0.41964910	-0.14895348	-0.16131643	0.36710645	0.01914874	0.89335808	0.60596562	0.09328553	0.57326448	-0.33740462	0.13717290	0.37537268	0.16953341	-0.80463329	0.15226757
3161	31.60000000	0.33507351	0.06581852	0.06498604	0.53646105	-0.03496211	0.19547004	-0.10988589	-0.06300650	0.50516760	0.41113909	-0.13708357	-0.18233035	0.31897641	0.02805707	0.89218716	0.58673395	0.10522001	0.59677202	-0.44658785	-0.03755405	0.20716671	0.12329236	-0.89704090	0.21238003
3162	31.61000000	0.32641857	0.10508183	0.04375194	0.50084569	-0.04267732	0.18746004	-0.22404305	-0.15706612	0.41212946	0.34199018	-0.16403471	-0.22160228	0.28705340	0.02810910	0.91512903	0.53237916	0.11701660	0.61886218	-0.53472477	-0.17897202	0.09425183	0.12053778	-0.97797623	0.25170065
3163	31.62000000	0.31616664	0.15667928	0.00565595	0.45442266	-0.07033918	0.18057967	-0.29425609	-0.25682072	0.29861218	0.24713111	-0.21116415	-0.27614287	0.27696912	0.03181670	0.99831106	0.48477256	0.13236057	0.63156011	-0.54363743	-0.26114164	0.01728288	0.09674673	-1.07317293	0.29266967
3164	31.63000000	0.29998380	0.20010648	-0.01398560	0.40059024	-0.10981887	0.18044395	-0.27073830	-0.33093407	0.14116598	0.13688096	-0.25785801	-0.35323935	0.31388013	0.04571582	1.06818348	0.42479022	0.14832070	0.63110170	-0.44422661	-0.42142747	-0.04129677	0.05363424	-1.16223151	0.26607178
3165	31.64000000	0.28078735	0.24094279	-0.03703552	0.34773567	-0.16172442	0.18821239	-0.23328755	-0.39070748	-0.01812986	0.06291317	-0.27656944	-0.43733867	0.35023659	0.07875733	1.12429193	0.36112846	0.17104422	0.62577503	-0.44863120	-0.63130481	-0.03709789	0.08380369	-1.29286706	0.24255205
3166	31.65000000	0.26953832	0.27466591	-0.05617670	0.31235310	-0.19993579	0.18288584	-0.20461158	-0.43837486	-0.16497364	-0.00543764	-0.28849314	-0.51928050	0.34764937	0.09096375	1.18915443	0.33104403	0.20655613	0.62419744	-0.46345477	-0.76279731	0.04132128	0.04742746	-1.45262544	0.18566117
3167	31.66000000	0.24847683	0.31641260	-0.09123471	0.28369519	-0.24581061	0.17864609	-0.04725374	-0.50717281	-0.33914023	-0.05494551	-0.33283769	-0.58379917	0.36150360	0.08898233	1.27966515	0.33621522	0.24970543	0.60726193	-0.53200799	-1.08456960	0.15164598	0.03429121	-1.61711566	0.09430535
3168	31.67000000	0.22427853	0.35453315	-0.11458564	0.28045984	-0.28632771	0.17487732	0.20283899	-0.60372255	-0.52626717	-0.06037201	-0.40927525	-0.64453600	0.39308546	0.08906187	1.39893257	0.36221171	0.30309474	0.58906292	1.29293417	-2.42014385	-0.14374590	0.05336093	-1.74097504	0.01578598
3169	31.68000000	0.20164773	0.39310784	-0.13852191	0.26826189	-0.30536303	0.17456334	0.45086119	-0.72045068	-0.67363244	-0.04792627	-0.50076983	-0.68534954	0.45051300	0.10252080	1.50566042	0.36263571	0.36238690	0.56728917	3.55741938	-2.13588966	-0.43214628	-0.09210702	-1.93208172	-0.08335320
3170	31.69000000	0.18264419	0.43880577	-0.16431563	0.22440891	-0.27972909	0.17676864	0.93621602	-0.89792540	-0.87976978	0.01569445	-0.59330109	-0.70778026	0.52370574	0.11660443	1.59148523	0.33682658	0.41383565	0.52253951	1.32441351	-2.50880572	0.09076106	-0.15729991	-2.10975386	-0.15648746
3171	31.70000000	0.16329232	0.48794059	-0.18175862	0.16766414	-0.22450075	0.19361138	1.32295887	-0.96010109	-0.88315362	0.17670445	-0.67361428	-0.72140424	0.54609202	0.10194841	1.70648022	0.31327216	0.45365021	0.44145593	1.00237184	-2.61378982	-0.17450023	-0.26627675	-2.33939439	-0.23168038
3172	31.71000000	0.14252811	0.53284047	-0.19581131	0.08265966	-0.17797793	0.24231737	0.64595327	-0.79267799	-0.29148198	0.38893820	-0.70240465	-0.71227673	0.56546488	0.08409170	1.83545019	0.27993490	0.48780403	0.32415687	2.53282955	-2.94929977	-1.07825755	-0.35403081	-2.57602767	-0.24450544
3173	31.72000000	0.11295894	0.57148713	-0.20760622	-0.06101870	-0.13264357	0.31302756	1.25414561	-0.67449224	0.06614676	0.66994833	-0.62576435	-0.71107027	0.59096585	0.05459370	1.97080023	0.28175677	0.51697333	0.20048968	1.18910332	-2.97046232	-1.09778615	-0.55602649	-2.85949604	-0.24136244
3174	31.73000000	0.07852119	0.61285583	-0.19192675	-0.26076103	-0.04405849	0.40257630	2.36085849	-0.60069421	-0.34350133	0.95612274	-0.44800938	-0.67498603	0.72227134	0.01124430	2.11321435	0.32785742	0.54782901	0.06990322	0.15323417	-2.68279728	-1.09332000	-0.70233520	-3.26900054	-0.30625216
